<svg width="90" height="90" viewBox="0 0 90 90" fill="none" xmlns="http://www.w3.org/2000/svg">
<path d="M36.8294 5.30188C37.0358 5.10063 37.3453 5 37.7579 5C38.3769 5 38.8927 5.40252 39.3054 6.20755C39.718 7.01258 39.6149 7.61635 38.9959 8.01887C25.1719 19.8931 17.1252 32.5723 14.8556 46.0566C14.6492 47.0629 14.5461 48.3711 14.5461 49.9811C14.5461 51.5912 14.6492 52.6981 14.8556 53.3019C16.2999 51.8931 18.7758 51.1887 22.2834 51.1887C27.4415 51.1887 31.4649 52.7987 34.3535 56.0189C37.2421 59.239 38.6864 63.0629 38.6864 67.4906C38.6864 72.3208 37.0358 76.4465 33.7345 79.8679C30.6396 83.2893 25.9972 85 19.8074 85C13.4113 85 8.45942 83.0881 4.95186 79.2642C1.65062 75.4403 0 70.1069 0 63.2641C0 59.239 0.412653 55.5157 1.23796 52.0943C2.88858 44.2453 7.01513 35.9937 13.6176 27.3396C20.2201 18.6855 27.9574 11.3396 36.8294 5.30188ZM87.2765 5.30188C87.4828 5.10063 87.7923 5 88.205 5C88.8239 5 89.3398 5.40252 89.7524 6.20755C90.1651 7.01258 90.0619 7.61635 89.4429 8.01887C75.619 19.8931 67.5722 32.5723 65.3026 46.0566C65.0963 47.0629 64.9931 48.3711 64.9931 49.9811C64.9931 51.5912 65.0963 52.6981 65.3026 53.3019C66.7469 51.8931 69.2228 51.1887 72.7304 51.1887C77.8886 51.1887 81.912 52.7987 84.8006 56.0189C87.6891 59.239 89.1334 63.0629 89.1334 67.4906C89.1334 72.3208 87.4828 76.4465 84.1816 79.8679C81.0867 83.2893 76.4443 85 70.2545 85C63.8583 85 58.9065 83.0881 55.3989 79.2642C52.0977 75.4403 50.447 70.1069 50.447 63.2641C50.447 59.239 50.8597 55.5157 51.685 52.0943C53.3356 44.2453 57.4622 35.9937 64.0647 27.3396C70.6671 18.6855 78.4044 11.3396 87.2765 5.30188Z" fill="#4DEE15"/>
</svg>
