<svg width="600" height="6000" fill="none" xmlns="http://www.w3.org/2000/svg"><g clip-path="url(#a)"><g clip-path="url(#b)" fill="#fff"><g opacity=".3"><path d="M0 6h600v1H0zM0 150h600v1H0zM0 42h600v1H0zM0 186h600v1H0zM0 0h600v1H0zM0 144h600v1H0zM0 36h600v1H0zM0 180h600v1H0zM0 9h600v1H0zM0 153h600v1H0zM0 45h600v1H0zM0 189h600v1H0zM0 3h600v1H0zM0 147h600v1H0zM0 39h600v1H0zM0 183h600v1H0zM0 15h600v1H0zM0 159h600v1H0zM0 51h600v1H0zM0 195h600v1H0zM0 12h600v1H0zM0 156h600v1H0zM0 48h600v1H0zM0 192h600v1H0zM0 24h600v1H0zM0 168h600v1H0zM0 60h600v1H0zM0 204h600v1H0zM0 18h600v1H0zM0 162h600v1H0zM0 54h600v1H0zM0 198h600v1H0zM0 27h600v1H0zM0 171h600v1H0zM0 63h600v1H0zM0 207h600v1H0zM0 21h600v1H0zM0 165h600v1H0zM0 57h600v1H0zM0 201h600v1H0zM0 33h600v1H0zM0 177h600v1H0zM0 69h600v1H0zM0 213h600v1H0zM0 30h600v1H0zM0 174h600v1H0zM0 66h600v1H0zM0 210h600v1H0zM0 78h600v1H0zM0 222h600v1H0zM0 114h600v1H0zM0 258h600v1H0zM0 72h600v1H0zM0 216h600v1H0zM0 108h600v1H0zM0 252h600v1H0zM0 81h600v1H0zM0 225h600v1H0zM0 117h600v1H0zM0 261h600v1H0zM0 75h600v1H0zM0 219h600v1H0zM0 111h600v1H0zM0 255h600v1H0zM0 87h600v1H0zM0 231h600v1H0zM0 123h600v1H0zM0 267h600v1H0zM0 84h600v1H0zM0 228h600v1H0zM0 120h600v1H0zM0 264h600v1H0zM0 96h600v1H0zM0 240h600v1H0zM0 132h600v1H0zM0 276h600v1H0zM0 90h600v1H0zM0 234h600v1H0zM0 126h600v1H0zM0 270h600v1H0zM0 99h600v1H0zM0 243h600v1H0zM0 135h600v1H0zM0 93h600v1H0zM0 237h600v1H0zM0 129h600v1H0zM0 273h600v1H0zM0 105h600v1H0zM0 249h600v1H0zM0 141h600v1H0zM0 102h600v1H0zM0 246h600v1H0zM0 138h600v1H0zM0 285h600v1H0zM0 429h600v1H0zM0 321h600v1H0zM0 465h600v1H0zM0 279h600v1H0zM0 423h600v1H0zM0 315h600v1H0zM0 459h600v1H0zM0 288h600v1H0zM0 432h600v1H0zM0 324h600v1H0zM0 468h600v1H0zM0 282h600v1H0zM0 426h600v1H0zM0 318h600v1H0zM0 462h600v1H0zM0 294h600v1H0zM0 438h600v1H0zM0 330h600v1H0zM0 474h600v1H0zM0 291h600v1H0zM0 435h600v1H0zM0 327h600v1H0zM0 471h600v1H0zM0 303h600v1H0zM0 447h600v1H0zM0 339h600v1H0zM0 483h600v1H0zM0 297h600v1H0zM0 441h600v1H0zM0 333h600v1H0zM0 477h600v1H0zM0 306h600v1H0zM0 450h600v1H0zM0 342h600v1H0zM0 486h600v1H0zM0 300h600v1H0zM0 444h600v1H0zM0 336h600v1H0zM0 480h600v1H0zM0 312h600v1H0zM0 456h600v1H0zM0 348h600v1H0zM0 492h600v1H0zM0 309h600v1H0zM0 453h600v1H0zM0 345h600v1H0zM0 489h600v1H0zM0 357h600v1H0zM0 501h600v1H0zM0 393h600v1H0zM0 537h600v1H0zM0 564h600v1H0zM0 591h600v1H0zM0 351h600v1H0zM0 495h600v1H0zM0 531h600v1H0zM0 558h600v1H0zM0 387h600v1H0zM0 585h600v1H0zM0 360h600v1H0zM0 540h600v1H0zM0 567h600v1H0zM0 504h600v1H0zM0 396h600v1H0zM0 594h600v1H0zM0 534h600v1H0zM0 354h600v1H0zM0 561h600v1H0zM0 498h600v1H0zM0 390h600v1H0zM0 546h600v1H0zM0 588h600v1H0zM0 573h600v1H0zM0 366h600v1H0zM0 510h600v1H0zM0 543h600v1H0zM0 402h600v1H0zM0 570h600v1H0zM0 363h600v1H0zM0 555h600v1H0zM0 507h600v1H0zM0 582h600v1H0zM0 399h600v1H0zM0 597h600v1H0zM0 549h600v1H0zM0 375h600v1H0zM0 576h600v1H0zM0 519h600v1H0zM0 411h600v1H0zM0 369h600v1H0zM0 513h600v1H0zM0 552h600v1H0zM0 579h600v1H0zM0 405h600v1H0zM0 378h600v1H0zM0 522h600v1H0zM0 414h600v1H0zM0 372h600v1H0zM0 516h600v1H0zM0 408h600v1H0zM0 384h600v1H0zM0 528h600v1H0zM0 420h600v1H0zM0 381h600v1H0zM0 525h600v1H0zM0 417h600v1H0z"/></g><g opacity=".12"><path d="M0 465h600v1H0zM0 468h600v1H0zM0 471h600v1H0zM0 474h600v1H0zM0 477h600v1H0zM0 480h600v1H0z"/></g><g opacity=".12"><path d="M0 516h600v1H0zM0 519h600v1H0zM0 522h600v1H0zM0 525h600v1H0z"/></g><g opacity=".18"><path d="M0 288h600v1H0zM0 291h600v1H0zM0 294h600v1H0zM0 297h600v1H0zM0 300h600v1H0zM0 303h600v1H0z"/></g><g opacity=".06"><path d="M0 354h600v1H0zM0 357h600v1H0zM0 360h600v1H0zM0 363h600v1H0z"/></g><g opacity=".24"><path d="M0 306h600v1H0zM0 309h600v1H0zM0 312h600v1H0zM0 315h600v1H0zM0 318h600v1H0zM0 321h600v1H0zM0 324h600v1H0zM0 327h600v1H0zM0 330h600v1H0zM0 333h600v1H0zM0 336h600v1H0z"/></g><g opacity=".12"><path d="M0 273h600v1H0zM0 276h600v1H0zM0 279h600v1H0zM0 282h600v1H0zM0 285h600v1H0z"/></g><g opacity=".16"><path d="M0 339h600v1H0zM0 342h600v1H0zM0 345h600v1H0zM0 348h600v1H0zM0 351h600v1H0z"/></g><g opacity=".06"><path d="M0 264h600v1H0zM0 267h600v1H0zM0 270h600v1H0z"/></g><g opacity=".12"><path d="M0 13h600v-1H0zM0 10h600V9H0zM0 7h600V6H0zM0 4h600V3H0zM0 1h600V0H0z"/></g><g opacity=".06"><path d="M0 73h600v-1H0zM0 70h600v-1H0zM0 67h600v-1H0zM0 64h600v-1H0zM0 61h600v-1H0z"/></g><g opacity=".12"><path d="M0 148h600v-1H0zM0 145h600v-1H0zM0 142h600v-1H0z"/></g><g opacity=".12"><path d="M0 598h600v-1H0zM0 595h600v-1H0zM0 592h600v-1H0zM0 589h600v-1H0z"/></g></g><g clip-path="url(#c)" fill="#fff"><g opacity=".3"><path d="M0 606h600v1H0zM0 750h600v1H0zM0 642h600v1H0zM0 786h600v1H0zM0 600h600v1H0zM0 744h600v1H0zM0 636h600v1H0zM0 780h600v1H0zM0 609h600v1H0zM0 753h600v1H0zM0 645h600v1H0zM0 789h600v1H0zM0 603h600v1H0zM0 747h600v1H0zM0 639h600v1H0zM0 783h600v1H0zM0 615h600v1H0zM0 759h600v1H0zM0 651h600v1H0zM0 795h600v1H0zM0 612h600v1H0zM0 756h600v1H0zM0 648h600v1H0zM0 792h600v1H0zM0 624h600v1H0zM0 768h600v1H0zM0 660h600v1H0zM0 804h600v1H0zM0 618h600v1H0zM0 762h600v1H0zM0 654h600v1H0zM0 798h600v1H0zM0 627h600v1H0zM0 771h600v1H0zM0 663h600v1H0zM0 807h600v1H0zM0 621h600v1H0zM0 765h600v1H0zM0 657h600v1H0zM0 801h600v1H0zM0 633h600v1H0zM0 777h600v1H0zM0 669h600v1H0zM0 813h600v1H0zM0 630h600v1H0zM0 774h600v1H0zM0 666h600v1H0zM0 810h600v1H0zM0 678h600v1H0zM0 822h600v1H0zM0 714h600v1H0zM0 858h600v1H0zM0 672h600v1H0zM0 816h600v1H0zM0 708h600v1H0zM0 852h600v1H0zM0 681h600v1H0zM0 825h600v1H0zM0 717h600v1H0zM0 861h600v1H0zM0 675h600v1H0zM0 819h600v1H0zM0 711h600v1H0zM0 855h600v1H0zM0 687h600v1H0zM0 831h600v1H0zM0 723h600v1H0zM0 867h600v1H0zM0 684h600v1H0zM0 828h600v1H0zM0 720h600v1H0zM0 864h600v1H0zM0 696h600v1H0zM0 840h600v1H0zM0 732h600v1H0zM0 876h600v1H0zM0 690h600v1H0zM0 834h600v1H0zM0 726h600v1H0zM0 870h600v1H0zM0 699h600v1H0zM0 843h600v1H0zM0 735h600v1H0zM0 693h600v1H0zM0 837h600v1H0zM0 729h600v1H0zM0 873h600v1H0zM0 705h600v1H0zM0 849h600v1H0zM0 741h600v1H0zM0 702h600v1H0zM0 846h600v1H0zM0 738h600v1H0zM0 885h600v1H0zM0 1029h600v1H0zM0 921h600v1H0zM0 1065h600v1H0zM0 879h600v1H0zM0 1023h600v1H0zM0 915h600v1H0zM0 1059h600v1H0zM0 888h600v1H0zM0 1032h600v1H0zM0 924h600v1H0zM0 1068h600v1H0zM0 882h600v1H0zM0 1026h600v1H0zM0 918h600v1H0zM0 1062h600v1H0zM0 894h600v1H0zM0 1038h600v1H0zM0 930h600v1H0zM0 1074h600v1H0zM0 891h600v1H0zM0 1035h600v1H0zM0 927h600v1H0zM0 1071h600v1H0zM0 903h600v1H0zM0 1047h600v1H0zM0 939h600v1H0zM0 1083h600v1H0zM0 897h600v1H0zM0 1041h600v1H0zM0 933h600v1H0zM0 1077h600v1H0zM0 906h600v1H0zM0 1050h600v1H0zM0 942h600v1H0zM0 1086h600v1H0zM0 900h600v1H0zM0 1044h600v1H0zM0 936h600v1H0zM0 1080h600v1H0zM0 912h600v1H0zM0 1056h600v1H0zM0 948h600v1H0zM0 1092h600v1H0zM0 909h600v1H0zM0 1053h600v1H0zM0 945h600v1H0zM0 1089h600v1H0zM0 957h600v1H0zM0 1101h600v1H0zM0 993h600v1H0zM0 1137h600v1H0zM0 1164h600v1H0zM0 1191h600v1H0zM0 951h600v1H0zM0 1095h600v1H0zM0 1131h600v1H0zM0 1158h600v1H0zM0 987h600v1H0zM0 1185h600v1H0zM0 960h600v1H0zM0 1140h600v1H0zM0 1167h600v1H0zM0 1104h600v1H0zM0 996h600v1H0zM0 1194h600v1H0zM0 1134h600v1H0zM0 954h600v1H0zM0 1161h600v1H0zM0 1098h600v1H0zM0 990h600v1H0zM0 1146h600v1H0zM0 1188h600v1H0zM0 1173h600v1H0zM0 966h600v1H0zM0 1110h600v1H0zM0 1143h600v1H0zM0 1002h600v1H0zM0 1170h600v1H0zM0 963h600v1H0zM0 1155h600v1H0zM0 1107h600v1H0zM0 1182h600v1H0zM0 999h600v1H0zM0 1197h600v1H0zM0 1149h600v1H0zM0 975h600v1H0zM0 1176h600v1H0zM0 1119h600v1H0zM0 1011h600v1H0zM0 969h600v1H0zM0 1113h600v1H0zM0 1152h600v1H0zM0 1179h600v1H0zM0 1005h600v1H0zM0 978h600v1H0zM0 1122h600v1H0zM0 1014h600v1H0zM0 972h600v1H0zM0 1116h600v1H0zM0 1008h600v1H0zM0 984h600v1H0zM0 1128h600v1H0zM0 1020h600v1H0zM0 981h600v1H0zM0 1125h600v1H0zM0 1017h600v1H0z"/></g><g opacity=".12"><path d="M0 1125h600v1H0zM0 1128h600v1H0zM0 1131h600v1H0zM0 1134h600v1H0zM0 1137h600v1H0zM0 1140h600v1H0z"/></g><g opacity=".12"><path d="M0 1176h600v1H0zM0 1179h600v1H0zM0 1182h600v1H0zM0 1185h600v1H0z"/></g><g opacity=".18"><path d="M0 948h600v1H0zM0 951h600v1H0zM0 954h600v1H0zM0 957h600v1H0zM0 960h600v1H0zM0 963h600v1H0z"/></g><g opacity=".06"><path d="M0 1014h600v1H0zM0 1017h600v1H0zM0 1020h600v1H0zM0 1023h600v1H0z"/></g><g opacity=".24"><path d="M0 966h600v1H0zM0 969h600v1H0zM0 972h600v1H0zM0 975h600v1H0zM0 978h600v1H0zM0 981h600v1H0zM0 984h600v1H0zM0 987h600v1H0zM0 990h600v1H0zM0 993h600v1H0zM0 996h600v1H0z"/></g><g opacity=".12"><path d="M0 933h600v1H0zM0 936h600v1H0zM0 939h600v1H0zM0 942h600v1H0zM0 945h600v1H0z"/></g><g opacity=".16"><path d="M0 999h600v1H0zM0 1002h600v1H0zM0 1005h600v1H0zM0 1008h600v1H0zM0 1011h600v1H0z"/></g><g opacity=".06"><path d="M0 924h600v1H0zM0 927h600v1H0zM0 930h600v1H0z"/></g><g opacity=".12"><path d="M0 673h600v-1H0zM0 670h600v-1H0zM0 667h600v-1H0zM0 664h600v-1H0zM0 661h600v-1H0z"/></g><g opacity=".06"><path d="M0 733h600v-1H0zM0 730h600v-1H0zM0 727h600v-1H0zM0 724h600v-1H0zM0 721h600v-1H0z"/></g><g opacity=".12"><path d="M0 808h600v-1H0zM0 805h600v-1H0zM0 802h600v-1H0z"/></g><g opacity=".12"><path d="M0 658h600v-1H0zM0 655h600v-1H0zM0 652h600v-1H0zM0 649h600v-1H0z"/></g></g><g clip-path="url(#d)"><g opacity=".3" fill="#fff"><path d="M0 1206h600v1H0zM0 1350h600v1H0zM0 1242h600v1H0zM0 1386h600v1H0zM0 1200h600v1H0zM0 1344h600v1H0zM0 1236h600v1H0zM0 1380h600v1H0zM0 1209h600v1H0zM0 1353h600v1H0zM0 1245h600v1H0zM0 1389h600v1H0zM0 1203h600v1H0zM0 1347h600v1H0zM0 1239h600v1H0zM0 1383h600v1H0zM0 1215h600v1H0zM0 1359h600v1H0zM0 1251h600v1H0zM0 1395h600v1H0zM0 1212h600v1H0zM0 1356h600v1H0zM0 1248h600v1H0zM0 1392h600v1H0zM0 1224h600v1H0zM0 1368h600v1H0zM0 1260h600v1H0zM0 1404h600v1H0zM0 1218h600v1H0zM0 1362h600v1H0zM0 1254h600v1H0zM0 1398h600v1H0zM0 1227h600v1H0zM0 1371h600v1H0zM0 1263h600v1H0zM0 1407h600v1H0zM0 1221h600v1H0zM0 1365h600v1H0zM0 1257h600v1H0zM0 1401h600v1H0zM0 1233h600v1H0zM0 1377h600v1H0zM0 1269h600v1H0zM0 1413h600v1H0zM0 1230h600v1H0zM0 1374h600v1H0zM0 1266h600v1H0zM0 1410h600v1H0zM0 1278h600v1H0zM0 1422h600v1H0zM0 1314h600v1H0zM0 1458h600v1H0zM0 1272h600v1H0zM0 1416h600v1H0zM0 1308h600v1H0zM0 1452h600v1H0zM0 1281h600v1H0zM0 1425h600v1H0zM0 1317h600v1H0zM0 1461h600v1H0zM0 1275h600v1H0zM0 1419h600v1H0zM0 1311h600v1H0zM0 1455h600v1H0zM0 1287h600v1H0zM0 1431h600v1H0zM0 1323h600v1H0zM0 1467h600v1H0zM0 1284h600v1H0zM0 1428h600v1H0zM0 1320h600v1H0zM0 1464h600v1H0zM0 1296h600v1H0zM0 1440h600v1H0zM0 1332h600v1H0zM0 1476h600v1H0zM0 1290h600v1H0zM0 1434h600v1H0zM0 1326h600v1H0zM0 1470h600v1H0zM0 1299h600v1H0zM0 1443h600v1H0zM0 1335h600v1H0zM0 1293h600v1H0zM0 1437h600v1H0zM0 1329h600v1H0zM0 1473h600v1H0zM0 1305h600v1H0zM0 1449h600v1H0zM0 1341h600v1H0zM0 1302h600v1H0zM0 1446h600v1H0zM0 1338h600v1H0zM0 1485h600v1H0zM0 1629h600v1H0zM0 1521h600v1H0zM0 1665h600v1H0zM0 1479h600v1H0zM0 1623h600v1H0zM0 1515h600v1H0zM0 1659h600v1H0zM0 1488h600v1H0zM0 1632h600v1H0zM0 1524h600v1H0zM0 1668h600v1H0zM0 1482h600v1H0zM0 1626h600v1H0zM0 1518h600v1H0zM0 1662h600v1H0zM0 1494h600v1H0zM0 1638h600v1H0zM0 1530h600v1H0zM0 1674h600v1H0zM0 1491h600v1H0zM0 1635h600v1H0zM0 1527h600v1H0zM0 1671h600v1H0zM0 1503h600v1H0zM0 1647h600v1H0zM0 1539h600v1H0zM0 1683h600v1H0zM0 1497h600v1H0zM0 1641h600v1H0zM0 1533h600v1H0zM0 1677h600v1H0zM0 1506h600v1H0zM0 1650h600v1H0zM0 1542h600v1H0zM0 1686h600v1H0zM0 1500h600v1H0zM0 1644h600v1H0zM0 1536h600v1H0zM0 1680h600v1H0zM0 1512h600v1H0zM0 1656h600v1H0zM0 1548h600v1H0zM0 1692h600v1H0zM0 1509h600v1H0zM0 1653h600v1H0zM0 1545h600v1H0zM0 1689h600v1H0zM0 1557h600v1H0zM0 1701h600v1H0zM0 1593h600v1H0zM0 1737h600v1H0zM0 1764h600v1H0zM0 1791h600v1H0zM0 1551h600v1H0zM0 1695h600v1H0zM0 1731h600v1H0zM0 1758h600v1H0zM0 1587h600v1H0zM0 1785h600v1H0zM0 1560h600v1H0zM0 1740h600v1H0zM0 1767h600v1H0zM0 1704h600v1H0zM0 1596h600v1H0zM0 1794h600v1H0zM0 1734h600v1H0zM0 1554h600v1H0zM0 1761h600v1H0zM0 1698h600v1H0zM0 1590h600v1H0zM0 1746h600v1H0zM0 1788h600v1H0zM0 1773h600v1H0zM0 1566h600v1H0zM0 1710h600v1H0zM0 1743h600v1H0zM0 1602h600v1H0zM0 1770h600v1H0zM0 1563h600v1H0zM0 1755h600v1H0zM0 1707h600v1H0zM0 1782h600v1H0zM0 1599h600v1H0zM0 1797h600v1H0zM0 1749h600v1H0zM0 1575h600v1H0zM0 1776h600v1H0zM0 1719h600v1H0zM0 1611h600v1H0zM0 1569h600v1H0zM0 1713h600v1H0zM0 1752h600v1H0zM0 1779h600v1H0zM0 1605h600v1H0zM0 1578h600v1H0zM0 1722h600v1H0zM0 1614h600v1H0zM0 1572h600v1H0zM0 1716h600v1H0zM0 1608h600v1H0zM0 1584h600v1H0zM0 1728h600v1H0zM0 1620h600v1H0zM0 1581h600v1H0zM0 1725h600v1H0zM0 1617h600v1H0z"/></g><g opacity=".12" fill="#fff"><path d="M0 1785h600v1H0zM0 1788h600v1H0zM0 1791h600v1H0zM0 1794h600v1H0zM0 1797h600v1H0z"/></g><g opacity=".18" fill="#fff"><path d="M0 1608h600v1H0zM0 1611h600v1H0zM0 1614h600v1H0zM0 1617h600v1H0zM0 1620h600v1H0zM0 1623h600v1H0z"/></g><g opacity=".06" fill="#fff"><path d="M0 1674h600v1H0zM0 1677h600v1H0zM0 1680h600v1H0zM0 1683h600v1H0z"/></g><g opacity=".24" fill="#fff"><path d="M0 1626h600v1H0zM0 1629h600v1H0zM0 1632h600v1H0zM0 1635h600v1H0zM0 1638h600v1H0zM0 1641h600v1H0zM0 1644h600v1H0zM0 1647h600v1H0zM0 1650h600v1H0zM0 1653h600v1H0zM0 1656h600v1H0z"/></g><g opacity=".12" fill="#fff"><path d="M0 1593h600v1H0zM0 1596h600v1H0zM0 1599h600v1H0zM0 1602h600v1H0zM0 1605h600v1H0z"/></g><g opacity=".16" fill="#fff"><path d="M0 1659h600v1H0zM0 1662h600v1H0zM0 1665h600v1H0zM0 1668h600v1H0zM0 1671h600v1H0z"/></g><g opacity=".06" fill="#fff"><path d="M0 1584h600v1H0zM0 1587h600v1H0zM0 1590h600v1H0z"/></g><g opacity=".12" fill="#fff"><path d="M0 1333h600v-1H0zM0 1330h600v-1H0zM0 1327h600v-1H0zM0 1324h600v-1H0zM0 1321h600v-1H0z"/></g><g opacity=".06" fill="#fff"><path d="M0 1393h600v-1H0zM0 1390h600v-1H0zM0 1387h600v-1H0zM0 1384h600v-1H0zM0 1381h600v-1H0z"/></g><g opacity=".12" fill="#fff"><path d="M0 1468h600v-1H0zM0 1465h600v-1H0zM0 1462h600v-1H0z"/></g><path fill="#fff" d="M0 1200h600v1H0z" opacity=".12"/><g opacity=".12" fill="#fff"><path d="M0 1236h600v1H0zM0 1239h600v1H0zM0 1242h600v1H0zM0 1245h600v1H0z"/></g><g opacity=".12" fill="#fff"><path d="M0 1318h600v-1H0zM0 1315h600v-1H0zM0 1312h600v-1H0zM0 1309h600v-1H0z"/></g></g><g clip-path="url(#e)" fill="#fff"><g opacity=".3"><path d="M0 1806h600v1H0zM0 1950h600v1H0zM0 1842h600v1H0zM0 1986h600v1H0zM0 1800h600v1H0zM0 1944h600v1H0zM0 1836h600v1H0zM0 1980h600v1H0zM0 1809h600v1H0zM0 1953h600v1H0zM0 1845h600v1H0zM0 1989h600v1H0zM0 1803h600v1H0zM0 1947h600v1H0zM0 1839h600v1H0zM0 1983h600v1H0zM0 1815h600v1H0zM0 1959h600v1H0zM0 1851h600v1H0zM0 1995h600v1H0zM0 1812h600v1H0zM0 1956h600v1H0zM0 1848h600v1H0zM0 1992h600v1H0zM0 1824h600v1H0zM0 1968h600v1H0zM0 1860h600v1H0zM0 2004h600v1H0zM0 1818h600v1H0zM0 1962h600v1H0zM0 1854h600v1H0zM0 1998h600v1H0zM0 1827h600v1H0zM0 1971h600v1H0zM0 1863h600v1H0zM0 2007h600v1H0zM0 1821h600v1H0zM0 1965h600v1H0zM0 1857h600v1H0zM0 2001h600v1H0zM0 1833h600v1H0zM0 1977h600v1H0zM0 1869h600v1H0zM0 2013h600v1H0zM0 1830h600v1H0zM0 1974h600v1H0zM0 1866h600v1H0zM0 2010h600v1H0zM0 1878h600v1H0zM0 2022h600v1H0zM0 1914h600v1H0zM0 2058h600v1H0zM0 1872h600v1H0zM0 2016h600v1H0zM0 1908h600v1H0zM0 2052h600v1H0zM0 1881h600v1H0zM0 2025h600v1H0zM0 1917h600v1H0zM0 2061h600v1H0zM0 1875h600v1H0zM0 2019h600v1H0zM0 1911h600v1H0zM0 2055h600v1H0zM0 1887h600v1H0zM0 2031h600v1H0zM0 1923h600v1H0zM0 2067h600v1H0zM0 1884h600v1H0zM0 2028h600v1H0zM0 1920h600v1H0zM0 2064h600v1H0zM0 1896h600v1H0zM0 2040h600v1H0zM0 1932h600v1H0zM0 2076h600v1H0zM0 1890h600v1H0zM0 2034h600v1H0zM0 1926h600v1H0zM0 2070h600v1H0zM0 1899h600v1H0zM0 2043h600v1H0zM0 1935h600v1H0zM0 1893h600v1H0zM0 2037h600v1H0zM0 1929h600v1H0zM0 2073h600v1H0zM0 1905h600v1H0zM0 2049h600v1H0zM0 1941h600v1H0zM0 1902h600v1H0zM0 2046h600v1H0zM0 1938h600v1H0zM0 2085h600v1H0zM0 2229h600v1H0zM0 2121h600v1H0zM0 2265h600v1H0zM0 2079h600v1H0zM0 2223h600v1H0zM0 2115h600v1H0zM0 2259h600v1H0zM0 2088h600v1H0zM0 2232h600v1H0zM0 2124h600v1H0zM0 2268h600v1H0zM0 2082h600v1H0zM0 2226h600v1H0zM0 2118h600v1H0zM0 2262h600v1H0zM0 2094h600v1H0zM0 2238h600v1H0zM0 2130h600v1H0zM0 2274h600v1H0zM0 2091h600v1H0zM0 2235h600v1H0zM0 2127h600v1H0zM0 2271h600v1H0zM0 2103h600v1H0zM0 2247h600v1H0zM0 2139h600v1H0zM0 2283h600v1H0zM0 2097h600v1H0zM0 2241h600v1H0zM0 2133h600v1H0zM0 2277h600v1H0zM0 2106h600v1H0zM0 2250h600v1H0zM0 2142h600v1H0zM0 2286h600v1H0zM0 2100h600v1H0zM0 2244h600v1H0zM0 2136h600v1H0zM0 2280h600v1H0zM0 2112h600v1H0zM0 2256h600v1H0zM0 2148h600v1H0zM0 2292h600v1H0zM0 2109h600v1H0zM0 2253h600v1H0zM0 2145h600v1H0zM0 2289h600v1H0zM0 2157h600v1H0zM0 2301h600v1H0zM0 2193h600v1H0zM0 2337h600v1H0zM0 2364h600v1H0zM0 2391h600v1H0zM0 2151h600v1H0zM0 2295h600v1H0zM0 2331h600v1H0zM0 2358h600v1H0zM0 2187h600v1H0zM0 2385h600v1H0zM0 2160h600v1H0zM0 2340h600v1H0zM0 2367h600v1H0zM0 2304h600v1H0zM0 2196h600v1H0zM0 2394h600v1H0zM0 2334h600v1H0zM0 2154h600v1H0zM0 2361h600v1H0zM0 2298h600v1H0zM0 2190h600v1H0zM0 2346h600v1H0zM0 2388h600v1H0zM0 2373h600v1H0zM0 2166h600v1H0zM0 2310h600v1H0zM0 2343h600v1H0zM0 2202h600v1H0zM0 2370h600v1H0zM0 2163h600v1H0zM0 2355h600v1H0zM0 2307h600v1H0zM0 2382h600v1H0zM0 2199h600v1H0zM0 2397h600v1H0zM0 2349h600v1H0zM0 2175h600v1H0zM0 2376h600v1H0zM0 2319h600v1H0zM0 2211h600v1H0zM0 2169h600v1H0zM0 2313h600v1H0zM0 2352h600v1H0zM0 2379h600v1H0zM0 2205h600v1H0zM0 2178h600v1H0zM0 2322h600v1H0zM0 2214h600v1H0zM0 2172h600v1H0zM0 2316h600v1H0zM0 2208h600v1H0zM0 2184h600v1H0zM0 2328h600v1H0zM0 2220h600v1H0zM0 2181h600v1H0zM0 2325h600v1H0zM0 2217h600v1H0z"/></g><g opacity=".18"><path d="M0 2268h600v1H0zM0 2271h600v1H0zM0 2274h600v1H0zM0 2277h600v1H0zM0 2280h600v1H0zM0 2283h600v1H0z"/></g><g opacity=".06"><path d="M0 2334h600v1H0zM0 2337h600v1H0zM0 2340h600v1H0zM0 2343h600v1H0z"/></g><g opacity=".24"><path d="M0 2286h600v1H0zM0 2289h600v1H0zM0 2292h600v1H0zM0 2295h600v1H0zM0 2298h600v1H0zM0 2301h600v1H0zM0 2304h600v1H0zM0 2307h600v1H0zM0 2310h600v1H0zM0 2313h600v1H0zM0 2316h600v1H0z"/></g><g opacity=".12"><path d="M0 2253h600v1H0zM0 2256h600v1H0zM0 2259h600v1H0zM0 2262h600v1H0zM0 2265h600v1H0z"/></g><g opacity=".16"><path d="M0 2319h600v1H0zM0 2322h600v1H0zM0 2325h600v1H0zM0 2328h600v1H0zM0 2331h600v1H0z"/></g><g opacity=".06"><path d="M0 2244h600v1H0zM0 2247h600v1H0zM0 2250h600v1H0z"/></g><g opacity=".12"><path d="M0 1993h600v-1H0zM0 1990h600v-1H0zM0 1987h600v-1H0zM0 1984h600v-1H0zM0 1981h600v-1H0z"/></g><g opacity=".06"><path d="M0 2053h600v-1H0zM0 2050h600v-1H0zM0 2047h600v-1H0zM0 2044h600v-1H0zM0 2041h600v-1H0z"/></g><g opacity=".12"><path d="M0 2128h600v-1H0zM0 2125h600v-1H0zM0 2122h600v-1H0z"/></g><g opacity=".12"><path d="M0 1845h600v1H0zM0 1848h600v1H0zM0 1851h600v1H0zM0 1854h600v1H0zM0 1857h600v1H0zM0 1860h600v1H0z"/></g><g opacity=".12"><path d="M0 1896h600v1H0zM0 1899h600v1H0zM0 1902h600v1H0zM0 1905h600v1H0z"/></g><g opacity=".12"><path d="M0 1978h600v-1H0zM0 1975h600v-1H0zM0 1972h600v-1H0zM0 1969h600v-1H0z"/></g></g><g clip-path="url(#f)" fill="#fff"><g opacity=".3"><path d="M0 2406h600v1H0zM0 2550h600v1H0zM0 2442h600v1H0zM0 2586h600v1H0zM0 2400h600v1H0zM0 2544h600v1H0zM0 2436h600v1H0zM0 2580h600v1H0zM0 2409h600v1H0zM0 2553h600v1H0zM0 2445h600v1H0zM0 2589h600v1H0zM0 2403h600v1H0zM0 2547h600v1H0zM0 2439h600v1H0zM0 2583h600v1H0zM0 2415h600v1H0zM0 2559h600v1H0zM0 2451h600v1H0zM0 2595h600v1H0zM0 2412h600v1H0zM0 2556h600v1H0zM0 2448h600v1H0zM0 2592h600v1H0zM0 2424h600v1H0zM0 2568h600v1H0zM0 2460h600v1H0zM0 2604h600v1H0zM0 2418h600v1H0zM0 2562h600v1H0zM0 2454h600v1H0zM0 2598h600v1H0zM0 2427h600v1H0zM0 2571h600v1H0zM0 2463h600v1H0zM0 2607h600v1H0zM0 2421h600v1H0zM0 2565h600v1H0zM0 2457h600v1H0zM0 2601h600v1H0zM0 2433h600v1H0zM0 2577h600v1H0zM0 2469h600v1H0zM0 2613h600v1H0zM0 2430h600v1H0zM0 2574h600v1H0zM0 2466h600v1H0zM0 2610h600v1H0zM0 2478h600v1H0zM0 2622h600v1H0zM0 2514h600v1H0zM0 2658h600v1H0zM0 2472h600v1H0zM0 2616h600v1H0zM0 2508h600v1H0zM0 2652h600v1H0zM0 2481h600v1H0zM0 2625h600v1H0zM0 2517h600v1H0zM0 2661h600v1H0zM0 2475h600v1H0zM0 2619h600v1H0zM0 2511h600v1H0zM0 2655h600v1H0zM0 2487h600v1H0zM0 2631h600v1H0zM0 2523h600v1H0zM0 2667h600v1H0zM0 2484h600v1H0zM0 2628h600v1H0zM0 2520h600v1H0zM0 2664h600v1H0zM0 2496h600v1H0zM0 2640h600v1H0zM0 2532h600v1H0zM0 2676h600v1H0zM0 2490h600v1H0zM0 2634h600v1H0zM0 2526h600v1H0zM0 2670h600v1H0zM0 2499h600v1H0zM0 2643h600v1H0zM0 2535h600v1H0zM0 2493h600v1H0zM0 2637h600v1H0zM0 2529h600v1H0zM0 2673h600v1H0zM0 2505h600v1H0zM0 2649h600v1H0zM0 2541h600v1H0zM0 2502h600v1H0zM0 2646h600v1H0zM0 2538h600v1H0zM0 2685h600v1H0zM0 2829h600v1H0zM0 2721h600v1H0zM0 2865h600v1H0zM0 2679h600v1H0zM0 2823h600v1H0zM0 2715h600v1H0zM0 2859h600v1H0zM0 2688h600v1H0zM0 2832h600v1H0zM0 2724h600v1H0zM0 2868h600v1H0zM0 2682h600v1H0zM0 2826h600v1H0zM0 2718h600v1H0zM0 2862h600v1H0zM0 2694h600v1H0zM0 2838h600v1H0zM0 2730h600v1H0zM0 2874h600v1H0zM0 2691h600v1H0zM0 2835h600v1H0zM0 2727h600v1H0zM0 2871h600v1H0zM0 2703h600v1H0zM0 2847h600v1H0zM0 2739h600v1H0zM0 2883h600v1H0zM0 2697h600v1H0zM0 2841h600v1H0zM0 2733h600v1H0zM0 2877h600v1H0zM0 2706h600v1H0zM0 2850h600v1H0zM0 2742h600v1H0zM0 2886h600v1H0zM0 2700h600v1H0zM0 2844h600v1H0zM0 2736h600v1H0zM0 2880h600v1H0zM0 2712h600v1H0zM0 2856h600v1H0zM0 2748h600v1H0zM0 2892h600v1H0zM0 2709h600v1H0zM0 2853h600v1H0zM0 2745h600v1H0zM0 2889h600v1H0zM0 2757h600v1H0zM0 2901h600v1H0zM0 2793h600v1H0zM0 2937h600v1H0zM0 2964h600v1H0zM0 2991h600v1H0zM0 2751h600v1H0zM0 2895h600v1H0zM0 2931h600v1H0zM0 2958h600v1H0zM0 2787h600v1H0zM0 2985h600v1H0zM0 2760h600v1H0zM0 2940h600v1H0zM0 2967h600v1H0zM0 2904h600v1H0zM0 2796h600v1H0zM0 2994h600v1H0zM0 2934h600v1H0zM0 2754h600v1H0zM0 2961h600v1H0zM0 2898h600v1H0zM0 2790h600v1H0zM0 2946h600v1H0zM0 2988h600v1H0zM0 2973h600v1H0zM0 2766h600v1H0zM0 2910h600v1H0zM0 2943h600v1H0zM0 2802h600v1H0zM0 2970h600v1H0zM0 2763h600v1H0zM0 2955h600v1H0zM0 2907h600v1H0zM0 2982h600v1H0zM0 2799h600v1H0zM0 2997h600v1H0zM0 2949h600v1H0zM0 2775h600v1H0zM0 2976h600v1H0zM0 2919h600v1H0zM0 2811h600v1H0zM0 2769h600v1H0zM0 2913h600v1H0zM0 2952h600v1H0zM0 2979h600v1H0zM0 2805h600v1H0zM0 2778h600v1H0zM0 2922h600v1H0zM0 2814h600v1H0zM0 2772h600v1H0zM0 2916h600v1H0zM0 2808h600v1H0zM0 2784h600v1H0zM0 2928h600v1H0zM0 2820h600v1H0zM0 2781h600v1H0zM0 2925h600v1H0zM0 2817h600v1H0z"/></g><g opacity=".18"><path d="M0 2928h600v1H0zM0 2931h600v1H0zM0 2934h600v1H0zM0 2937h600v1H0zM0 2940h600v1H0zM0 2943h600v1H0z"/></g><g opacity=".06"><path d="M0 2994h600v1H0zM0 2997h600v1H0z"/></g><g opacity=".24"><path d="M0 2946h600v1H0zM0 2949h600v1H0zM0 2952h600v1H0zM0 2955h600v1H0zM0 2958h600v1H0zM0 2961h600v1H0zM0 2964h600v1H0zM0 2967h600v1H0zM0 2970h600v1H0zM0 2973h600v1H0zM0 2976h600v1H0z"/></g><g opacity=".12"><path d="M0 2913h600v1H0zM0 2916h600v1H0zM0 2919h600v1H0zM0 2922h600v1H0zM0 2925h600v1H0z"/></g><g opacity=".16"><path d="M0 2979h600v1H0zM0 2982h600v1H0zM0 2985h600v1H0zM0 2988h600v1H0zM0 2991h600v1H0z"/></g><g opacity=".06"><path d="M0 2904h600v1H0zM0 2907h600v1H0zM0 2910h600v1H0z"/></g><g opacity=".12"><path d="M0 2653h600v-1H0zM0 2650h600v-1H0zM0 2647h600v-1H0zM0 2644h600v-1H0zM0 2641h600v-1H0z"/></g><g opacity=".06"><path d="M0 2713h600v-1H0zM0 2710h600v-1H0zM0 2707h600v-1H0zM0 2704h600v-1H0zM0 2701h600v-1H0z"/></g><g opacity=".12"><path d="M0 2788h600v-1H0zM0 2785h600v-1H0zM0 2782h600v-1H0z"/></g><g opacity=".12"><path d="M0 2505h600v1H0zM0 2508h600v1H0zM0 2511h600v1H0zM0 2514h600v1H0zM0 2517h600v1H0zM0 2520h600v1H0z"/></g><g opacity=".12"><path d="M0 2556h600v1H0zM0 2559h600v1H0zM0 2562h600v1H0zM0 2565h600v1H0z"/></g><g opacity=".06"><path d="M0 2400h600v1H0zM0 2403h600v1H0z"/></g><g opacity=".12"><path d="M0 2638h600v-1H0zM0 2635h600v-1H0zM0 2632h600v-1H0zM0 2629h600v-1H0z"/></g></g><g clip-path="url(#g)" fill="#fff"><g opacity=".3"><path d="M0 3006h600v1H0zM0 3150h600v1H0zM0 3042h600v1H0zM0 3186h600v1H0zM0 3000h600v1H0zM0 3144h600v1H0zM0 3036h600v1H0zM0 3180h600v1H0zM0 3009h600v1H0zM0 3153h600v1H0zM0 3045h600v1H0zM0 3189h600v1H0zM0 3003h600v1H0zM0 3147h600v1H0zM0 3039h600v1H0zM0 3183h600v1H0zM0 3015h600v1H0zM0 3159h600v1H0zM0 3051h600v1H0zM0 3195h600v1H0zM0 3012h600v1H0zM0 3156h600v1H0zM0 3048h600v1H0zM0 3192h600v1H0zM0 3024h600v1H0zM0 3168h600v1H0zM0 3060h600v1H0zM0 3204h600v1H0zM0 3018h600v1H0zM0 3162h600v1H0zM0 3054h600v1H0zM0 3198h600v1H0zM0 3027h600v1H0zM0 3171h600v1H0zM0 3063h600v1H0zM0 3207h600v1H0zM0 3021h600v1H0zM0 3165h600v1H0zM0 3057h600v1H0zM0 3201h600v1H0zM0 3033h600v1H0zM0 3177h600v1H0zM0 3069h600v1H0zM0 3213h600v1H0zM0 3030h600v1H0zM0 3174h600v1H0zM0 3066h600v1H0zM0 3210h600v1H0zM0 3078h600v1H0zM0 3222h600v1H0zM0 3114h600v1H0zM0 3258h600v1H0zM0 3072h600v1H0zM0 3216h600v1H0zM0 3108h600v1H0zM0 3252h600v1H0zM0 3081h600v1H0zM0 3225h600v1H0zM0 3117h600v1H0zM0 3261h600v1H0zM0 3075h600v1H0zM0 3219h600v1H0zM0 3111h600v1H0zM0 3255h600v1H0zM0 3087h600v1H0zM0 3231h600v1H0zM0 3123h600v1H0zM0 3267h600v1H0zM0 3084h600v1H0zM0 3228h600v1H0zM0 3120h600v1H0zM0 3264h600v1H0zM0 3096h600v1H0zM0 3240h600v1H0zM0 3132h600v1H0zM0 3276h600v1H0zM0 3090h600v1H0zM0 3234h600v1H0zM0 3126h600v1H0zM0 3270h600v1H0zM0 3099h600v1H0zM0 3243h600v1H0zM0 3135h600v1H0zM0 3093h600v1H0zM0 3237h600v1H0zM0 3129h600v1H0zM0 3273h600v1H0zM0 3105h600v1H0zM0 3249h600v1H0zM0 3141h600v1H0zM0 3102h600v1H0zM0 3246h600v1H0zM0 3138h600v1H0zM0 3285h600v1H0zM0 3429h600v1H0zM0 3321h600v1H0zM0 3465h600v1H0zM0 3279h600v1H0zM0 3423h600v1H0zM0 3315h600v1H0zM0 3459h600v1H0zM0 3288h600v1H0zM0 3432h600v1H0zM0 3324h600v1H0zM0 3468h600v1H0zM0 3282h600v1H0zM0 3426h600v1H0zM0 3318h600v1H0zM0 3462h600v1H0zM0 3294h600v1H0zM0 3438h600v1H0zM0 3330h600v1H0zM0 3474h600v1H0zM0 3291h600v1H0zM0 3435h600v1H0zM0 3327h600v1H0zM0 3471h600v1H0zM0 3303h600v1H0zM0 3447h600v1H0zM0 3339h600v1H0zM0 3483h600v1H0zM0 3297h600v1H0zM0 3441h600v1H0zM0 3333h600v1H0zM0 3477h600v1H0zM0 3306h600v1H0zM0 3450h600v1H0zM0 3342h600v1H0zM0 3486h600v1H0zM0 3300h600v1H0zM0 3444h600v1H0zM0 3336h600v1H0zM0 3480h600v1H0zM0 3312h600v1H0zM0 3456h600v1H0zM0 3348h600v1H0zM0 3492h600v1H0zM0 3309h600v1H0zM0 3453h600v1H0zM0 3345h600v1H0zM0 3489h600v1H0zM0 3357h600v1H0zM0 3501h600v1H0zM0 3393h600v1H0zM0 3537h600v1H0zM0 3564h600v1H0zM0 3591h600v1H0zM0 3351h600v1H0zM0 3495h600v1H0zM0 3531h600v1H0zM0 3558h600v1H0zM0 3387h600v1H0zM0 3585h600v1H0zM0 3360h600v1H0zM0 3540h600v1H0zM0 3567h600v1H0zM0 3504h600v1H0zM0 3396h600v1H0zM0 3594h600v1H0zM0 3534h600v1H0zM0 3354h600v1H0zM0 3561h600v1H0zM0 3498h600v1H0zM0 3390h600v1H0zM0 3546h600v1H0zM0 3588h600v1H0zM0 3573h600v1H0zM0 3366h600v1H0zM0 3510h600v1H0zM0 3543h600v1H0zM0 3402h600v1H0zM0 3570h600v1H0zM0 3363h600v1H0zM0 3555h600v1H0zM0 3507h600v1H0zM0 3582h600v1H0zM0 3399h600v1H0zM0 3597h600v1H0zM0 3549h600v1H0zM0 3375h600v1H0zM0 3576h600v1H0zM0 3519h600v1H0zM0 3411h600v1H0zM0 3369h600v1H0zM0 3513h600v1H0zM0 3552h600v1H0zM0 3579h600v1H0zM0 3405h600v1H0zM0 3378h600v1H0zM0 3522h600v1H0zM0 3414h600v1H0zM0 3372h600v1H0zM0 3516h600v1H0zM0 3408h600v1H0zM0 3384h600v1H0zM0 3528h600v1H0zM0 3420h600v1H0zM0 3381h600v1H0zM0 3525h600v1H0zM0 3417h600v1H0z"/></g><g opacity=".18"><path d="M0 3588h600v1H0zM0 3591h600v1H0zM0 3594h600v1H0zM0 3597h600v1H0z"/></g><g opacity=".12"><path d="M0 3573h600v1H0zM0 3576h600v1H0zM0 3579h600v1H0zM0 3582h600v1H0zM0 3585h600v1H0z"/></g><g opacity=".06"><path d="M0 3564h600v1H0zM0 3567h600v1H0zM0 3570h600v1H0z"/></g><g opacity=".12"><path d="M0 3313h600v-1H0zM0 3310h600v-1H0zM0 3307h600v-1H0zM0 3304h600v-1H0zM0 3301h600v-1H0z"/></g><g opacity=".06"><path d="M0 3373h600v-1H0zM0 3370h600v-1H0zM0 3367h600v-1H0zM0 3364h600v-1H0zM0 3361h600v-1H0z"/></g><g opacity=".12"><path d="M0 3448h600v-1H0zM0 3445h600v-1H0zM0 3442h600v-1H0z"/></g><g opacity=".12"><path d="M0 3165h600v1H0zM0 3168h600v1H0zM0 3171h600v1H0zM0 3174h600v1H0zM0 3177h600v1H0zM0 3180h600v1H0z"/></g><g opacity=".12"><path d="M0 3216h600v1H0zM0 3219h600v1H0zM0 3222h600v1H0zM0 3225h600v1H0z"/></g><g opacity=".18"><path d="M0 3000h600v1H0zM0 3003h600v1H0z"/></g><g opacity=".06"><path d="M0 3054h600v1H0zM0 3057h600v1H0zM0 3060h600v1H0zM0 3063h600v1H0z"/></g><g opacity=".24"><path d="M0 3006h600v1H0zM0 3009h600v1H0zM0 3012h600v1H0zM0 3015h600v1H0zM0 3018h600v1H0zM0 3021h600v1H0zM0 3024h600v1H0zM0 3027h600v1H0zM0 3030h600v1H0zM0 3033h600v1H0zM0 3036h600v1H0z"/></g><g opacity=".16"><path d="M0 3039h600v1H0zM0 3042h600v1H0zM0 3045h600v1H0zM0 3048h600v1H0zM0 3051h600v1H0z"/></g><g opacity=".12"><path d="M0 3298h600v-1H0zM0 3295h600v-1H0zM0 3292h600v-1H0zM0 3289h600v-1H0z"/></g></g><g clip-path="url(#h)" fill="#fff"><g opacity=".3"><path d="M0 3606h600v1H0zM0 3750h600v1H0zM0 3642h600v1H0zM0 3786h600v1H0zM0 3600h600v1H0zM0 3744h600v1H0zM0 3636h600v1H0zM0 3780h600v1H0zM0 3609h600v1H0zM0 3753h600v1H0zM0 3645h600v1H0zM0 3789h600v1H0zM0 3603h600v1H0zM0 3747h600v1H0zM0 3639h600v1H0zM0 3783h600v1H0zM0 3615h600v1H0zM0 3759h600v1H0zM0 3651h600v1H0zM0 3795h600v1H0zM0 3612h600v1H0zM0 3756h600v1H0zM0 3648h600v1H0zM0 3792h600v1H0zM0 3624h600v1H0zM0 3768h600v1H0zM0 3660h600v1H0zM0 3804h600v1H0zM0 3618h600v1H0zM0 3762h600v1H0zM0 3654h600v1H0zM0 3798h600v1H0zM0 3627h600v1H0zM0 3771h600v1H0zM0 3663h600v1H0zM0 3807h600v1H0zM0 3621h600v1H0zM0 3765h600v1H0zM0 3657h600v1H0zM0 3801h600v1H0zM0 3633h600v1H0zM0 3777h600v1H0zM0 3669h600v1H0zM0 3813h600v1H0zM0 3630h600v1H0zM0 3774h600v1H0zM0 3666h600v1H0zM0 3810h600v1H0zM0 3678h600v1H0zM0 3822h600v1H0zM0 3714h600v1H0zM0 3858h600v1H0zM0 3672h600v1H0zM0 3816h600v1H0zM0 3708h600v1H0zM0 3852h600v1H0zM0 3681h600v1H0zM0 3825h600v1H0zM0 3717h600v1H0zM0 3861h600v1H0zM0 3675h600v1H0zM0 3819h600v1H0zM0 3711h600v1H0zM0 3855h600v1H0zM0 3687h600v1H0zM0 3831h600v1H0zM0 3723h600v1H0zM0 3867h600v1H0zM0 3684h600v1H0zM0 3828h600v1H0zM0 3720h600v1H0zM0 3864h600v1H0zM0 3696h600v1H0zM0 3840h600v1H0zM0 3732h600v1H0zM0 3876h600v1H0zM0 3690h600v1H0zM0 3834h600v1H0zM0 3726h600v1H0zM0 3870h600v1H0zM0 3699h600v1H0zM0 3843h600v1H0zM0 3735h600v1H0zM0 3693h600v1H0zM0 3837h600v1H0zM0 3729h600v1H0zM0 3873h600v1H0zM0 3705h600v1H0zM0 3849h600v1H0zM0 3741h600v1H0zM0 3702h600v1H0zM0 3846h600v1H0zM0 3738h600v1H0zM0 3885h600v1H0zM0 4029h600v1H0zM0 3921h600v1H0zM0 4065h600v1H0zM0 3879h600v1H0zM0 4023h600v1H0zM0 3915h600v1H0zM0 4059h600v1H0zM0 3888h600v1H0zM0 4032h600v1H0zM0 3924h600v1H0zM0 4068h600v1H0zM0 3882h600v1H0zM0 4026h600v1H0zM0 3918h600v1H0zM0 4062h600v1H0zM0 3894h600v1H0zM0 4038h600v1H0zM0 3930h600v1H0zM0 4074h600v1H0zM0 3891h600v1H0zM0 4035h600v1H0zM0 3927h600v1H0zM0 4071h600v1H0zM0 3903h600v1H0zM0 4047h600v1H0zM0 3939h600v1H0zM0 4083h600v1H0zM0 3897h600v1H0zM0 4041h600v1H0zM0 3933h600v1H0zM0 4077h600v1H0zM0 3906h600v1H0zM0 4050h600v1H0zM0 3942h600v1H0zM0 4086h600v1H0zM0 3900h600v1H0zM0 4044h600v1H0zM0 3936h600v1H0zM0 4080h600v1H0zM0 3912h600v1H0zM0 4056h600v1H0zM0 3948h600v1H0zM0 4092h600v1H0zM0 3909h600v1H0zM0 4053h600v1H0zM0 3945h600v1H0zM0 4089h600v1H0zM0 3957h600v1H0zM0 4101h600v1H0zM0 3993h600v1H0zM0 4137h600v1H0zM0 4164h600v1H0zM0 4191h600v1H0zM0 3951h600v1H0zM0 4095h600v1H0zM0 4131h600v1H0zM0 4158h600v1H0zM0 3987h600v1H0zM0 4185h600v1H0zM0 3960h600v1H0zM0 4140h600v1H0zM0 4167h600v1H0zM0 4104h600v1H0zM0 3996h600v1H0zM0 4194h600v1H0zM0 4134h600v1H0zM0 3954h600v1H0zM0 4161h600v1H0zM0 4098h600v1H0zM0 3990h600v1H0zM0 4146h600v1H0zM0 4188h600v1H0zM0 4173h600v1H0zM0 3966h600v1H0zM0 4110h600v1H0zM0 4143h600v1H0zM0 4002h600v1H0zM0 4170h600v1H0zM0 3963h600v1H0zM0 4155h600v1H0zM0 4107h600v1H0zM0 4182h600v1H0zM0 3999h600v1H0zM0 4197h600v1H0zM0 4149h600v1H0zM0 3975h600v1H0zM0 4176h600v1H0zM0 4119h600v1H0zM0 4011h600v1H0zM0 3969h600v1H0zM0 4113h600v1H0zM0 4152h600v1H0zM0 4179h600v1H0zM0 4005h600v1H0zM0 3978h600v1H0zM0 4122h600v1H0zM0 4014h600v1H0zM0 3972h600v1H0zM0 4116h600v1H0zM0 4008h600v1H0zM0 3984h600v1H0zM0 4128h600v1H0zM0 4020h600v1H0zM0 3981h600v1H0zM0 4125h600v1H0zM0 4017h600v1H0z"/></g><g opacity=".12"><path d="M0 3973h600v-1H0zM0 3970h600v-1H0zM0 3967h600v-1H0zM0 3964h600v-1H0zM0 3961h600v-1H0z"/></g><g opacity=".06"><path d="M0 4033h600v-1H0zM0 4030h600v-1H0zM0 4027h600v-1H0zM0 4024h600v-1H0zM0 4021h600v-1H0z"/></g><g opacity=".12"><path d="M0 4108h600v-1H0zM0 4105h600v-1H0zM0 4102h600v-1H0z"/></g><g opacity=".12"><path d="M0 3825h600v1H0zM0 3828h600v1H0zM0 3831h600v1H0zM0 3834h600v1H0zM0 3837h600v1H0zM0 3840h600v1H0z"/></g><g opacity=".12"><path d="M0 3876h600v1H0zM0 3879h600v1H0zM0 3882h600v1H0zM0 3885h600v1H0z"/></g><g opacity=".18"><path d="M0 3648h600v1H0zM0 3651h600v1H0zM0 3654h600v1H0zM0 3657h600v1H0zM0 3660h600v1H0zM0 3663h600v1H0z"/></g><g opacity=".06"><path d="M0 3714h600v1H0zM0 3717h600v1H0zM0 3720h600v1H0zM0 3723h600v1H0z"/></g><g opacity=".24"><path d="M0 3666h600v1H0zM0 3669h600v1H0zM0 3672h600v1H0zM0 3675h600v1H0zM0 3678h600v1H0zM0 3681h600v1H0zM0 3684h600v1H0zM0 3687h600v1H0zM0 3690h600v1H0zM0 3693h600v1H0zM0 3696h600v1H0z"/></g><g opacity=".12"><path d="M0 3633h600v1H0zM0 3636h600v1H0zM0 3639h600v1H0zM0 3642h600v1H0zM0 3645h600v1H0z"/></g><g opacity=".16"><path d="M0 3699h600v1H0zM0 3702h600v1H0zM0 3705h600v1H0zM0 3708h600v1H0zM0 3711h600v1H0z"/></g><g opacity=".06"><path d="M0 3624h600v1H0zM0 3627h600v1H0zM0 3630h600v1H0z"/></g><g opacity=".12"><path d="M0 3958h600v-1H0zM0 3955h600v-1H0zM0 3952h600v-1H0zM0 3949h600v-1H0z"/></g></g><g clip-path="url(#i)" fill="#fff"><g opacity=".3"><path d="M0 4206h600v1H0zM0 4350h600v1H0zM0 4242h600v1H0zM0 4386h600v1H0zM0 4200h600v1H0zM0 4344h600v1H0zM0 4236h600v1H0zM0 4380h600v1H0zM0 4209h600v1H0zM0 4353h600v1H0zM0 4245h600v1H0zM0 4389h600v1H0zM0 4203h600v1H0zM0 4347h600v1H0zM0 4239h600v1H0zM0 4383h600v1H0zM0 4215h600v1H0zM0 4359h600v1H0zM0 4251h600v1H0zM0 4395h600v1H0zM0 4212h600v1H0zM0 4356h600v1H0zM0 4248h600v1H0zM0 4392h600v1H0zM0 4224h600v1H0zM0 4368h600v1H0zM0 4260h600v1H0zM0 4404h600v1H0zM0 4218h600v1H0zM0 4362h600v1H0zM0 4254h600v1H0zM0 4398h600v1H0zM0 4227h600v1H0zM0 4371h600v1H0zM0 4263h600v1H0zM0 4407h600v1H0zM0 4221h600v1H0zM0 4365h600v1H0zM0 4257h600v1H0zM0 4401h600v1H0zM0 4233h600v1H0zM0 4377h600v1H0zM0 4269h600v1H0zM0 4413h600v1H0zM0 4230h600v1H0zM0 4374h600v1H0zM0 4266h600v1H0zM0 4410h600v1H0zM0 4278h600v1H0zM0 4422h600v1H0zM0 4314h600v1H0zM0 4458h600v1H0zM0 4272h600v1H0zM0 4416h600v1H0zM0 4308h600v1H0zM0 4452h600v1H0zM0 4281h600v1H0zM0 4425h600v1H0zM0 4317h600v1H0zM0 4461h600v1H0zM0 4275h600v1H0zM0 4419h600v1H0zM0 4311h600v1H0zM0 4455h600v1H0zM0 4287h600v1H0zM0 4431h600v1H0zM0 4323h600v1H0zM0 4467h600v1H0zM0 4284h600v1H0zM0 4428h600v1H0zM0 4320h600v1H0zM0 4464h600v1H0zM0 4296h600v1H0zM0 4440h600v1H0zM0 4332h600v1H0zM0 4476h600v1H0zM0 4290h600v1H0zM0 4434h600v1H0zM0 4326h600v1H0zM0 4470h600v1H0zM0 4299h600v1H0zM0 4443h600v1H0zM0 4335h600v1H0zM0 4293h600v1H0zM0 4437h600v1H0zM0 4329h600v1H0zM0 4473h600v1H0zM0 4305h600v1H0zM0 4449h600v1H0zM0 4341h600v1H0zM0 4302h600v1H0zM0 4446h600v1H0zM0 4338h600v1H0zM0 4485h600v1H0zM0 4629h600v1H0zM0 4521h600v1H0zM0 4665h600v1H0zM0 4479h600v1H0zM0 4623h600v1H0zM0 4515h600v1H0zM0 4659h600v1H0zM0 4488h600v1H0zM0 4632h600v1H0zM0 4524h600v1H0zM0 4668h600v1H0zM0 4482h600v1H0zM0 4626h600v1H0zM0 4518h600v1H0zM0 4662h600v1H0zM0 4494h600v1H0zM0 4638h600v1H0zM0 4530h600v1H0zM0 4674h600v1H0zM0 4491h600v1H0zM0 4635h600v1H0zM0 4527h600v1H0zM0 4671h600v1H0zM0 4503h600v1H0zM0 4647h600v1H0zM0 4539h600v1H0zM0 4683h600v1H0zM0 4497h600v1H0zM0 4641h600v1H0zM0 4533h600v1H0zM0 4677h600v1H0zM0 4506h600v1H0zM0 4650h600v1H0zM0 4542h600v1H0zM0 4686h600v1H0zM0 4500h600v1H0zM0 4644h600v1H0zM0 4536h600v1H0zM0 4680h600v1H0zM0 4512h600v1H0zM0 4656h600v1H0zM0 4548h600v1H0zM0 4692h600v1H0zM0 4509h600v1H0zM0 4653h600v1H0zM0 4545h600v1H0zM0 4689h600v1H0zM0 4557h600v1H0zM0 4701h600v1H0zM0 4593h600v1H0zM0 4737h600v1H0zM0 4764h600v1H0zM0 4791h600v1H0zM0 4551h600v1H0zM0 4695h600v1H0zM0 4731h600v1H0zM0 4758h600v1H0zM0 4587h600v1H0zM0 4785h600v1H0zM0 4560h600v1H0zM0 4740h600v1H0zM0 4767h600v1H0zM0 4704h600v1H0zM0 4596h600v1H0zM0 4794h600v1H0zM0 4734h600v1H0zM0 4554h600v1H0zM0 4761h600v1H0zM0 4698h600v1H0zM0 4590h600v1H0zM0 4746h600v1H0zM0 4788h600v1H0zM0 4773h600v1H0zM0 4566h600v1H0zM0 4710h600v1H0zM0 4743h600v1H0zM0 4602h600v1H0zM0 4770h600v1H0zM0 4563h600v1H0zM0 4755h600v1H0zM0 4707h600v1H0zM0 4782h600v1H0zM0 4599h600v1H0zM0 4797h600v1H0zM0 4749h600v1H0zM0 4575h600v1H0zM0 4776h600v1H0zM0 4719h600v1H0zM0 4611h600v1H0zM0 4569h600v1H0zM0 4713h600v1H0zM0 4752h600v1H0zM0 4779h600v1H0zM0 4605h600v1H0zM0 4578h600v1H0zM0 4722h600v1H0zM0 4614h600v1H0zM0 4572h600v1H0zM0 4716h600v1H0zM0 4608h600v1H0zM0 4584h600v1H0zM0 4728h600v1H0zM0 4620h600v1H0zM0 4581h600v1H0zM0 4725h600v1H0zM0 4617h600v1H0z"/></g><g opacity=".12"><path d="M0 4633h600v-1H0zM0 4630h600v-1H0zM0 4627h600v-1H0zM0 4624h600v-1H0zM0 4621h600v-1H0z"/></g><g opacity=".06"><path d="M0 4693h600v-1H0zM0 4690h600v-1H0zM0 4687h600v-1H0zM0 4684h600v-1H0zM0 4681h600v-1H0z"/></g><g opacity=".12"><path d="M0 4768h600v-1H0zM0 4765h600v-1H0zM0 4762h600v-1H0z"/></g><g opacity=".12"><path d="M0 4485h600v1H0zM0 4488h600v1H0zM0 4491h600v1H0zM0 4494h600v1H0zM0 4497h600v1H0zM0 4500h600v1H0z"/></g><g opacity=".12"><path d="M0 4536h600v1H0zM0 4539h600v1H0zM0 4542h600v1H0zM0 4545h600v1H0z"/></g><g opacity=".18"><path d="M0 4308h600v1H0zM0 4311h600v1H0zM0 4314h600v1H0zM0 4317h600v1H0zM0 4320h600v1H0zM0 4323h600v1H0z"/></g><g opacity=".06"><path d="M0 4374h600v1H0zM0 4377h600v1H0zM0 4380h600v1H0zM0 4383h600v1H0z"/></g><g opacity=".24"><path d="M0 4326h600v1H0zM0 4329h600v1H0zM0 4332h600v1H0zM0 4335h600v1H0zM0 4338h600v1H0zM0 4341h600v1H0zM0 4344h600v1H0zM0 4347h600v1H0zM0 4350h600v1H0zM0 4353h600v1H0zM0 4356h600v1H0z"/></g><g opacity=".12"><path d="M0 4293h600v1H0zM0 4296h600v1H0zM0 4299h600v1H0zM0 4302h600v1H0zM0 4305h600v1H0z"/></g><g opacity=".16"><path d="M0 4359h600v1H0zM0 4362h600v1H0zM0 4365h600v1H0zM0 4368h600v1H0zM0 4371h600v1H0z"/></g><g opacity=".06"><path d="M0 4284h600v1H0zM0 4287h600v1H0zM0 4290h600v1H0z"/></g><g opacity=".12"><path d="M0 4618h600v-1H0zM0 4615h600v-1H0zM0 4612h600v-1H0zM0 4609h600v-1H0z"/></g></g><g clip-path="url(#j)" fill="#fff"><g opacity=".3"><path d="M0 4806h600v1H0zM0 4950h600v1H0zM0 4842h600v1H0zM0 4986h600v1H0zM0 4800h600v1H0zM0 4944h600v1H0zM0 4836h600v1H0zM0 4980h600v1H0zM0 4809h600v1H0zM0 4953h600v1H0zM0 4845h600v1H0zM0 4989h600v1H0zM0 4803h600v1H0zM0 4947h600v1H0zM0 4839h600v1H0zM0 4983h600v1H0zM0 4815h600v1H0zM0 4959h600v1H0zM0 4851h600v1H0zM0 4995h600v1H0zM0 4812h600v1H0zM0 4956h600v1H0zM0 4848h600v1H0zM0 4992h600v1H0zM0 4824h600v1H0zM0 4968h600v1H0zM0 4860h600v1H0zM0 5004h600v1H0zM0 4818h600v1H0zM0 4962h600v1H0zM0 4854h600v1H0zM0 4998h600v1H0zM0 4827h600v1H0zM0 4971h600v1H0zM0 4863h600v1H0zM0 5007h600v1H0zM0 4821h600v1H0zM0 4965h600v1H0zM0 4857h600v1H0zM0 5001h600v1H0zM0 4833h600v1H0zM0 4977h600v1H0zM0 4869h600v1H0zM0 5013h600v1H0zM0 4830h600v1H0zM0 4974h600v1H0zM0 4866h600v1H0zM0 5010h600v1H0zM0 4878h600v1H0zM0 5022h600v1H0zM0 4914h600v1H0zM0 5058h600v1H0zM0 4872h600v1H0zM0 5016h600v1H0zM0 4908h600v1H0zM0 5052h600v1H0zM0 4881h600v1H0zM0 5025h600v1H0zM0 4917h600v1H0zM0 5061h600v1H0zM0 4875h600v1H0zM0 5019h600v1H0zM0 4911h600v1H0zM0 5055h600v1H0zM0 4887h600v1H0zM0 5031h600v1H0zM0 4923h600v1H0zM0 5067h600v1H0zM0 4884h600v1H0zM0 5028h600v1H0zM0 4920h600v1H0zM0 5064h600v1H0zM0 4896h600v1H0zM0 5040h600v1H0zM0 4932h600v1H0zM0 5076h600v1H0zM0 4890h600v1H0zM0 5034h600v1H0zM0 4926h600v1H0zM0 5070h600v1H0zM0 4899h600v1H0zM0 5043h600v1H0zM0 4935h600v1H0zM0 4893h600v1H0zM0 5037h600v1H0zM0 4929h600v1H0zM0 5073h600v1H0zM0 4905h600v1H0zM0 5049h600v1H0zM0 4941h600v1H0zM0 4902h600v1H0zM0 5046h600v1H0zM0 4938h600v1H0zM0 5085h600v1H0zM0 5229h600v1H0zM0 5121h600v1H0zM0 5265h600v1H0zM0 5079h600v1H0zM0 5223h600v1H0zM0 5115h600v1H0zM0 5259h600v1H0zM0 5088h600v1H0zM0 5232h600v1H0zM0 5124h600v1H0zM0 5268h600v1H0zM0 5082h600v1H0zM0 5226h600v1H0zM0 5118h600v1H0zM0 5262h600v1H0zM0 5094h600v1H0zM0 5238h600v1H0zM0 5130h600v1H0zM0 5274h600v1H0zM0 5091h600v1H0zM0 5235h600v1H0zM0 5127h600v1H0zM0 5271h600v1H0zM0 5103h600v1H0zM0 5247h600v1H0zM0 5139h600v1H0zM0 5283h600v1H0zM0 5097h600v1H0zM0 5241h600v1H0zM0 5133h600v1H0zM0 5277h600v1H0zM0 5106h600v1H0zM0 5250h600v1H0zM0 5142h600v1H0zM0 5286h600v1H0zM0 5100h600v1H0zM0 5244h600v1H0zM0 5136h600v1H0zM0 5280h600v1H0zM0 5112h600v1H0zM0 5256h600v1H0zM0 5148h600v1H0zM0 5292h600v1H0zM0 5109h600v1H0zM0 5253h600v1H0zM0 5145h600v1H0zM0 5289h600v1H0zM0 5157h600v1H0zM0 5301h600v1H0zM0 5193h600v1H0zM0 5337h600v1H0zM0 5364h600v1H0zM0 5391h600v1H0zM0 5151h600v1H0zM0 5295h600v1H0zM0 5331h600v1H0zM0 5358h600v1H0zM0 5187h600v1H0zM0 5385h600v1H0zM0 5160h600v1H0zM0 5340h600v1H0zM0 5367h600v1H0zM0 5304h600v1H0zM0 5196h600v1H0zM0 5394h600v1H0zM0 5334h600v1H0zM0 5154h600v1H0zM0 5361h600v1H0zM0 5298h600v1H0zM0 5190h600v1H0zM0 5346h600v1H0zM0 5388h600v1H0zM0 5373h600v1H0zM0 5166h600v1H0zM0 5310h600v1H0zM0 5343h600v1H0zM0 5202h600v1H0zM0 5370h600v1H0zM0 5163h600v1H0zM0 5355h600v1H0zM0 5307h600v1H0zM0 5382h600v1H0zM0 5199h600v1H0zM0 5397h600v1H0zM0 5349h600v1H0zM0 5175h600v1H0zM0 5376h600v1H0zM0 5319h600v1H0zM0 5211h600v1H0zM0 5169h600v1H0zM0 5313h600v1H0zM0 5352h600v1H0zM0 5379h600v1H0zM0 5205h600v1H0zM0 5178h600v1H0zM0 5322h600v1H0zM0 5214h600v1H0zM0 5172h600v1H0zM0 5316h600v1H0zM0 5208h600v1H0zM0 5184h600v1H0zM0 5328h600v1H0zM0 5220h600v1H0zM0 5181h600v1H0zM0 5325h600v1H0zM0 5217h600v1H0z"/></g><g opacity=".12"><path d="M0 5293h600v-1H0zM0 5290h600v-1H0zM0 5287h600v-1H0zM0 5284h600v-1H0zM0 5281h600v-1H0z"/></g><g opacity=".06"><path d="M0 5353h600v-1H0zM0 5350h600v-1H0zM0 5347h600v-1H0zM0 5344h600v-1H0zM0 5341h600v-1H0z"/></g><g opacity=".12"><path d="M0 5145h600v1H0zM0 5148h600v1H0zM0 5151h600v1H0zM0 5154h600v1H0zM0 5157h600v1H0zM0 5160h600v1H0z"/></g><g opacity=".12"><path d="M0 5196h600v1H0zM0 5199h600v1H0zM0 5202h600v1H0zM0 5205h600v1H0z"/></g><g opacity=".18"><path d="M0 4968h600v1H0zM0 4971h600v1H0zM0 4974h600v1H0zM0 4977h600v1H0zM0 4980h600v1H0zM0 4983h600v1H0z"/></g><g opacity=".06"><path d="M0 5034h600v1H0zM0 5037h600v1H0zM0 5040h600v1H0zM0 5043h600v1H0z"/></g><g opacity=".24"><path d="M0 4986h600v1H0zM0 4989h600v1H0zM0 4992h600v1H0zM0 4995h600v1H0zM0 4998h600v1H0zM0 5001h600v1H0zM0 5004h600v1H0zM0 5007h600v1H0zM0 5010h600v1H0zM0 5013h600v1H0zM0 5016h600v1H0z"/></g><g opacity=".12"><path d="M0 4953h600v1H0zM0 4956h600v1H0zM0 4959h600v1H0zM0 4962h600v1H0zM0 4965h600v1H0z"/></g><g opacity=".16"><path d="M0 5019h600v1H0zM0 5022h600v1H0zM0 5025h600v1H0zM0 5028h600v1H0zM0 5031h600v1H0z"/></g><g opacity=".06"><path d="M0 4944h600v1H0zM0 4947h600v1H0zM0 4950h600v1H0z"/></g><g opacity=".12"><path d="M0 4828h600v-1H0zM0 4825h600v-1H0zM0 4822h600v-1H0z"/></g><g opacity=".12"><path d="M0 5278h600v-1H0zM0 5275h600v-1H0zM0 5272h600v-1H0zM0 5269h600v-1H0z"/></g></g><g clip-path="url(#k)" fill="#fff"><g opacity=".3"><path d="M0 5406h600v1H0zM0 5550h600v1H0zM0 5442h600v1H0zM0 5586h600v1H0zM0 5400h600v1H0zM0 5544h600v1H0zM0 5436h600v1H0zM0 5580h600v1H0zM0 5409h600v1H0zM0 5553h600v1H0zM0 5445h600v1H0zM0 5589h600v1H0zM0 5403h600v1H0zM0 5547h600v1H0zM0 5439h600v1H0zM0 5583h600v1H0zM0 5415h600v1H0zM0 5559h600v1H0zM0 5451h600v1H0zM0 5595h600v1H0zM0 5412h600v1H0zM0 5556h600v1H0zM0 5448h600v1H0zM0 5592h600v1H0zM0 5424h600v1H0zM0 5568h600v1H0zM0 5460h600v1H0zM0 5604h600v1H0zM0 5418h600v1H0zM0 5562h600v1H0zM0 5454h600v1H0zM0 5598h600v1H0zM0 5427h600v1H0zM0 5571h600v1H0zM0 5463h600v1H0zM0 5607h600v1H0zM0 5421h600v1H0zM0 5565h600v1H0zM0 5457h600v1H0zM0 5601h600v1H0zM0 5433h600v1H0zM0 5577h600v1H0zM0 5469h600v1H0zM0 5613h600v1H0zM0 5430h600v1H0zM0 5574h600v1H0zM0 5466h600v1H0zM0 5610h600v1H0zM0 5478h600v1H0zM0 5622h600v1H0zM0 5514h600v1H0zM0 5658h600v1H0zM0 5472h600v1H0zM0 5616h600v1H0zM0 5508h600v1H0zM0 5652h600v1H0zM0 5481h600v1H0zM0 5625h600v1H0zM0 5517h600v1H0zM0 5661h600v1H0zM0 5475h600v1H0zM0 5619h600v1H0zM0 5511h600v1H0zM0 5655h600v1H0zM0 5487h600v1H0zM0 5631h600v1H0zM0 5523h600v1H0zM0 5667h600v1H0zM0 5484h600v1H0zM0 5628h600v1H0zM0 5520h600v1H0zM0 5664h600v1H0zM0 5496h600v1H0zM0 5640h600v1H0zM0 5532h600v1H0zM0 5676h600v1H0zM0 5490h600v1H0zM0 5634h600v1H0zM0 5526h600v1H0zM0 5670h600v1H0zM0 5499h600v1H0zM0 5643h600v1H0zM0 5535h600v1H0zM0 5493h600v1H0zM0 5637h600v1H0zM0 5529h600v1H0zM0 5673h600v1H0zM0 5505h600v1H0zM0 5649h600v1H0zM0 5541h600v1H0zM0 5502h600v1H0zM0 5646h600v1H0zM0 5538h600v1H0zM0 5685h600v1H0zM0 5829h600v1H0zM0 5721h600v1H0zM0 5865h600v1H0zM0 5679h600v1H0zM0 5823h600v1H0zM0 5715h600v1H0zM0 5859h600v1H0zM0 5688h600v1H0zM0 5832h600v1H0zM0 5724h600v1H0zM0 5868h600v1H0zM0 5682h600v1H0zM0 5826h600v1H0zM0 5718h600v1H0zM0 5862h600v1H0zM0 5694h600v1H0zM0 5838h600v1H0zM0 5730h600v1H0zM0 5874h600v1H0zM0 5691h600v1H0zM0 5835h600v1H0zM0 5727h600v1H0zM0 5871h600v1H0zM0 5703h600v1H0zM0 5847h600v1H0zM0 5739h600v1H0zM0 5883h600v1H0zM0 5697h600v1H0zM0 5841h600v1H0zM0 5733h600v1H0zM0 5877h600v1H0zM0 5706h600v1H0zM0 5850h600v1H0zM0 5742h600v1H0zM0 5886h600v1H0zM0 5700h600v1H0zM0 5844h600v1H0zM0 5736h600v1H0zM0 5880h600v1H0zM0 5712h600v1H0zM0 5856h600v1H0zM0 5748h600v1H0zM0 5892h600v1H0zM0 5709h600v1H0zM0 5853h600v1H0zM0 5745h600v1H0zM0 5889h600v1H0zM0 5757h600v1H0zM0 5901h600v1H0zM0 5793h600v1H0zM0 5937h600v1H0zM0 5964h600v1H0zM0 5991h600v1H0zM0 5751h600v1H0zM0 5895h600v1H0zM0 5931h600v1H0zM0 5958h600v1H0zM0 5787h600v1H0zM0 5985h600v1H0zM0 5760h600v1H0zM0 5940h600v1H0zM0 5967h600v1H0zM0 5904h600v1H0zM0 5796h600v1H0zM0 5994h600v1H0zM0 5934h600v1H0zM0 5754h600v1H0zM0 5961h600v1H0zM0 5898h600v1H0zM0 5790h600v1H0zM0 5946h600v1H0zM0 5988h600v1H0zM0 5973h600v1H0zM0 5766h600v1H0zM0 5910h600v1H0zM0 5943h600v1H0zM0 5802h600v1H0zM0 5970h600v1H0zM0 5763h600v1H0zM0 5955h600v1H0zM0 5907h600v1H0zM0 5982h600v1H0zM0 5799h600v1H0zM0 5997h600v1H0zM0 5949h600v1H0zM0 5775h600v1H0zM0 5976h600v1H0zM0 5919h600v1H0zM0 5811h600v1H0zM0 5769h600v1H0zM0 5913h600v1H0zM0 5952h600v1H0zM0 5979h600v1H0zM0 5805h600v1H0zM0 5778h600v1H0zM0 5922h600v1H0zM0 5814h600v1H0zM0 5772h600v1H0zM0 5916h600v1H0zM0 5808h600v1H0zM0 5784h600v1H0zM0 5928h600v1H0zM0 5820h600v1H0zM0 5781h600v1H0zM0 5925h600v1H0zM0 5817h600v1H0z"/></g><g opacity=".12"><path d="M0 5953h600v-1H0zM0 5950h600v-1H0zM0 5947h600v-1H0zM0 5944h600v-1H0zM0 5941h600v-1H0z"/></g><g opacity=".12"><path d="M0 5805h600v1H0zM0 5808h600v1H0zM0 5811h600v1H0zM0 5814h600v1H0zM0 5817h600v1H0zM0 5820h600v1H0z"/></g><g opacity=".12"><path d="M0 5856h600v1H0zM0 5859h600v1H0zM0 5862h600v1H0zM0 5865h600v1H0z"/></g><g opacity=".18"><path d="M0 5628h600v1H0zM0 5631h600v1H0zM0 5634h600v1H0zM0 5637h600v1H0zM0 5640h600v1H0zM0 5643h600v1H0z"/></g><g opacity=".06"><path d="M0 5694h600v1H0zM0 5697h600v1H0zM0 5700h600v1H0zM0 5703h600v1H0z"/></g><g opacity=".24"><path d="M0 5646h600v1H0zM0 5649h600v1H0zM0 5652h600v1H0zM0 5655h600v1H0zM0 5658h600v1H0zM0 5661h600v1H0zM0 5664h600v1H0zM0 5667h600v1H0zM0 5670h600v1H0zM0 5673h600v1H0zM0 5676h600v1H0z"/></g><g opacity=".12"><path d="M0 5613h600v1H0zM0 5616h600v1H0zM0 5619h600v1H0zM0 5622h600v1H0zM0 5625h600v1H0z"/></g><g opacity=".16"><path d="M0 5679h600v1H0zM0 5682h600v1H0zM0 5685h600v1H0zM0 5688h600v1H0zM0 5691h600v1H0z"/></g><g opacity=".06"><path d="M0 5604h600v1H0zM0 5607h600v1H0zM0 5610h600v1H0z"/></g><g opacity=".06"><path d="M0 5413h600v-1H0zM0 5410h600v-1H0zM0 5407h600v-1H0zM0 5404h600v-1H0zM0 5401h600v-1H0z"/></g><g opacity=".12"><path d="M0 5488h600v-1H0zM0 5485h600v-1H0zM0 5482h600v-1H0z"/></g><g opacity=".12"><path d="M0 5938h600v-1H0zM0 5935h600v-1H0zM0 5932h600v-1H0zM0 5929h600v-1H0z"/></g></g></g><defs><clipPath id="a"><path fill="#fff" d="M0 0h600v6000H0z"/></clipPath><clipPath id="b"><path fill="#fff" d="M0 0h600v600H0z"/></clipPath><clipPath id="c"><path fill="#fff" transform="translate(0 600)" d="M0 0h600v600H0z"/></clipPath><clipPath id="d"><path fill="#fff" transform="translate(0 1200)" d="M0 0h600v600H0z"/></clipPath><clipPath id="e"><path fill="#fff" transform="translate(0 1800)" d="M0 0h600v600H0z"/></clipPath><clipPath id="f"><path fill="#fff" transform="translate(0 2400)" d="M0 0h600v600H0z"/></clipPath><clipPath id="g"><path fill="#fff" transform="translate(0 3000)" d="M0 0h600v600H0z"/></clipPath><clipPath id="h"><path fill="#fff" transform="translate(0 3600)" d="M0 0h600v600H0z"/></clipPath><clipPath id="i"><path fill="#fff" transform="translate(0 4200)" d="M0 0h600v600H0z"/></clipPath><clipPath id="j"><path fill="#fff" transform="translate(0 4800)" d="M0 0h600v600H0z"/></clipPath><clipPath id="k"><path fill="#fff" transform="translate(0 5400)" d="M0 0h600v600H0z"/></clipPath></defs></svg>